# xmcd
#
# Track frame offsets: 
#        150
#        14240
#        29447
#        43825
#        58114
#        71488
#        88675
#        106674
#        123036
#        140323
#        154562
#        166860
#        178289
#
# Disc length: 2587 seconds
#
# Revision: 0
# Processed by: cddbd v1.5.2PL0 Copyright (c) Steve Scherf et al.
# Submitted via: ExactAudioCopy v0.95b4
#
DISCID=ab0a190d
DTITLE=Lindsay Ferguson - Sound
DYEAR=2007
DGENRE=Blues
TTITLE0=My Alibi
TTITLE1=Bloodstream
TTITLE2=Winesong
TTITLE3=Livin' 4 The Moment
TTITLE4=Song n Dance
TTITLE5=Touch Of Sin
TTITLE6=No Epitome
TTITLE7=8th Wonder
TTITLE8=Breakthrough
TTITLE9=Wanted
TTITLE10=C'mon Papa
TTITLE11=A Little Longer
TTITLE12=1000 Kisses
EXTD=
EXTT0=
EXTT1=
EXTT2=
EXTT3=
EXTT4=
EXTT5=
EXTT6=
EXTT7=
EXTT8=
EXTT9=
EXTT10=
EXTT11=
EXTT12=
PLAYORDER=
